<svg xmlns="http://www.w3.org/2000/svg" xmlns:xlink="http://www.w3.org/1999/xlink" width="80" height="80" viewBox="0 0 80 80">
    <defs>
        <path id="12ik7aei3a" d="M0 0.008L63.233 0.008 63.233 58 0 58z"/>
        <path id="40ej3gz1oc" d="M0.241 0.191L2.991 0.191 2.991 42.375 0.241 42.375z"/>
    </defs>
    <g fill="none" fill-rule="evenodd">
        <g>
            <g>
                <path d="M0 0H80V80H0z" transform="translate(-919 -504) translate(919 504)"/>
                <g>
                    <g transform="translate(-919 -504) translate(919 504) translate(8 5) translate(0 12.81)">
                        <mask id="1vwu8g1sub" fill="#fff">
                            <use xlink:href="#12ik7aei3a"/>
                        </mask>
                        <path fill="#30D84C" d="M49.444.274c-.022-.017-.043-.033-.066-.048L49.33.192c-.017-.012-.037-.016-.056-.022-.188-.1-.399-.162-.626-.162-.745 0-1.348.604-1.348 1.35 0 .47.242.882.607 1.123C55.93 7.961 61.052 17.371 60.5 27.94c-.757 14.463-12.383 26.301-26.83 27.297-16.903 1.166-30.977-12.2-30.977-28.853 0-9.922 4.997-18.677 12.611-23.887.38-.239.633-.659.633-1.139 0-.745-.603-1.349-1.348-1.349-.283 0-.545.09-.762.238l-.009.004C5.084 6.21-.509 16.432.037 27.923c.776 16.372 14.3 29.611 30.682 30.064 17.871.495 32.514-13.845 32.514-31.604 0-10.846-5.465-20.415-13.789-26.109" mask="url(#1vwu8g1sub)"/>
                    </g>
                    <g transform="translate(-919 -504) translate(919 504) translate(8 5) translate(30 .81)">
                        <mask id="625jq7o1zd" fill="#fff">
                            <use xlink:href="#40ej3gz1oc"/>
                        </mask>
                        <path fill="#30D84C" d="M1.616 42.375C.86 42.375.241 41.756.241 41V1.565C.241.81.861.19 1.616.19c.756 0 1.375.62 1.375 1.375V41c0 .756-.619 1.375-1.375 1.375" mask="url(#625jq7o1zd)"/>
                    </g>
                </g>
            </g>
        </g>
    </g>
</svg>
