<svg xmlns="http://www.w3.org/2000/svg" width="202" height="180" viewBox="0 0 202 180">
    <g fill="none" fill-rule="evenodd">
        <g>
            <g transform="translate(-450 -390) translate(450 390)">
                <path d="M0 0H202V180H0z"/>
                <rect width="201" height="39" x=".5" y="140.5" fill="#FFF" stroke="#979797" rx="8"/>
                <rect width="201" height="39" x=".5" y="121.5" fill="#FFF" stroke="#979797" rx="8"/>
                <g>
                    <path fill="#FFF" d="M115.329 144.365c-.282 0-.593-.025-.924-.076l-4.935-.692V102.9l8.004-.763v39.967c.007.087.14 1.02-.395 1.644-.354.41-.942.618-1.75.618" transform="translate(40)"/>
                    <path fill="#999" d="M117.973 101.587l-9.004.857v41.588l5.36.751c.37.057.701.082 1 .082 3.09 0 2.644-2.76 2.644-2.76v-40.518zm-1 1.1v39.497l.013.08c.001.006.088.717-.284 1.153-.253.298-.715.448-1.374.448-.255 0-.54-.023-.86-.073l-4.499-.629v-39.809l7.004-.667z" transform="translate(40)"/>
                    <path fill="#FFF" d="M7.988 144.365c-.808 0-1.396-.208-1.75-.619-.536-.623-.402-1.556-.4-1.566l.005-40.044 8.004.763v40.698l-4.928.691c-.338.052-.65.077-.931.077" transform="translate(40)"/>
                    <path fill="#999" d="M5.343 101.587v40.517s-.445 2.761 2.645 2.761c.298 0 .63-.025 1-.082l5.36-.75v-41.589l-9.005-.857zm1 1.1l7.004.667v39.81l-4.512.63c-.305.048-.59.071-.847.071-.653 0-1.113-.148-1.367-.44-.32-.368-.317-.97-.29-1.162l.012-.079v-39.497z" transform="translate(40)"/>
                    <path fill="#FFF" d="M61.534 150.807c-27.875 0-43.462-1.5-47.653-4.581-.673-.346-1.033-.831-1.033-1.341v-40.297h97.37v40.297c0 .51-.36.995-.96 1.296-4.262 3.127-19.85 4.626-47.724 4.626" transform="translate(40)"/>
                    <path fill="#999" d="M110.718 104.088h-98.37v40.797c0 .73.496 1.372 1.236 1.743 4.976 3.66 24.546 4.68 47.95 4.68 23.402 0 42.973-1.02 47.948-4.68.741-.37 1.236-1.014 1.236-1.743v-40.797zm-1 1v39.797c0 .312-.262.638-.684.85l-.076.037-.069.05c-6.095 4.485-37.15 4.485-47.356 4.485-10.206 0-41.26 0-47.356-4.485l-.068-.05-.078-.038c-.42-.21-.683-.537-.683-.849v-39.797h96.37z" transform="translate(40)"/>
                    <path fill="#C9C9C9" d="M59.53 150.867L64.884 150.867 64.884 104.588 59.53 104.588z" transform="translate(40)"/>
                    <path fill="#999" d="M59.029 151.367h6.354v-47.279h-6.354v47.279zm1-1h4.354v-45.279h-4.354v45.279z" transform="translate(40)"/>
                    <path fill="#FFF" d="M61.523 109.162c-35.88 0-60.508-4.122-61-7.973l-.015-.12V4.448h122.05v96.58l-.035.16c-.491 3.851-25.12 7.973-61 7.973" transform="translate(40)"/>
                    <path fill="#999" d="M123.058 3.948H.008v97.102c0 .016-.008.032-.008.048s.008.032.008.048v.107h.02c.594 4.658 27.889 8.408 61.495 8.408 33.606 0 60.901-3.75 61.496-8.408h.039V3.948zm-1 1v95.934l-.031.244c-.121.947-3.937 3.228-17.513 5.087-11.528 1.58-26.797 2.448-42.991 2.448s-31.462-.869-42.991-2.448c-13.576-1.859-17.391-4.14-17.512-5.087l-.012-.075V4.947h121.05z" transform="translate(40)"/>
                    <path fill="#FFF" d="M61.53 7.458C27.298 7.458 2.759 5.68.585 3.98 2.759 2.28 27.297.5 61.53.5c34.233 0 58.77 1.78 60.946 3.48-2.175 1.7-26.714 3.478-60.946 3.478" transform="translate(40)"/>
                    <path fill="#999" d="M61.53 0C27.55 0 .007 1.781.007 3.98c0 2.197 27.544 3.978 61.523 3.978s61.524-1.78 61.524-3.979C123.054 1.781 95.509 0 61.53 0m0 1c33.113 0 54.284 1.608 59.53 2.98-5.246 1.37-26.417 2.978-59.53 2.978C28.418 6.958 7.247 5.35 2 3.98 7.247 2.61 28.418 1 61.53 1" transform="translate(40)"/>
                    <path fill="#FFF" d="M99.748 85.966c-5.239 0-9.5-4.262-9.5-9.5v-3.395c0-5.238 4.261-9.5 9.5-9.5h3.294c5.239 0 9.5 4.262 9.5 9.5v3.395c0 5.238-4.261 9.5-9.5 9.5h-3.294z" transform="translate(40)"/>
                    <path fill="#999" d="M103.042 63.072h-3.295c-5.5 0-10 4.5-10 10v3.394c0 5.5 4.5 10 10 10h3.295c5.5 0 10-4.5 10-10v-3.394c0-5.5-4.5-10-10-10m0 1c4.963 0 9 4.037 9 9v3.394c0 4.963-4.037 9-9 9h-3.295c-4.963 0-9-4.037-9-9v-3.394c0-4.963 4.037-9 9-9h3.295" transform="translate(40)"/>
                    <path fill="#EDF0F2" d="M103.114 84.438H99.82c-4.4 0-8-3.601-8-8v-3.294c0-4.4 3.6-8 8-8h3.294c4.399 0 8 3.6 8 8v3.294c0 4.399-3.601 8-8 8" transform="translate(40)"/>
                    <path stroke="#999" d="M103.114 65.644c2.062 0 3.936.844 5.296 2.204 1.36 1.359 2.204 3.234 2.204 5.296h0v3.294c0 2.062-.845 3.936-2.204 5.296-1.36 1.36-3.234 2.204-5.296 2.204h0-3.294c-2.062 0-3.937-.845-5.296-2.204-1.36-1.36-2.204-3.234-2.204-5.296h0v-3.294c0-2.062.844-3.937 2.204-5.296 1.359-1.36 3.234-2.204 5.296-2.204h0z" transform="translate(40)"/>
                    <path stroke="#999" stroke-linecap="round" stroke-width="1.5" d="M104.712 70.708c1.408.994 2.328 2.635 2.328 4.49 0 3.033-2.459 5.492-5.493 5.492-3.033 0-5.492-2.459-5.492-5.492 0-1.855.92-3.496 2.328-4.49" transform="translate(40)"/>
                    <path fill="#999" d="M101.654 76.131c-.368 0-.67-.302-.67-.67v-6.003c0-.368.302-.67.67-.67.369 0 .67.302.67.67v6.003c0 .368-.301.67-.67.67" transform="translate(40)"/>
                    <path fill="red" d="M104 49c0 1.104-.896 2-2 2s-2-.896-2-2 .896-2 2-2 2 .896 2 2" transform="translate(40)"/>
                </g>
                <circle cx="141" cy="75" r="20" fill="#FB4444" fill-opacity=".2"/>
                <path stroke="#979797" d="M7.124 160.593L7.124 179.593M195.124 160.593L195.124 179.593"/>
            </g>
        </g>
    </g>
</svg>
