<svg xmlns="http://www.w3.org/2000/svg" xmlns:xlink="http://www.w3.org/1999/xlink" width="340" height="182" viewBox="0 0 340 182">
    <defs>
        <circle id="xx1rcv2tea" cx="40" cy="40" r="40"/>
        <circle id="hedw8v12xd" cx="40" cy="40" r="40"/>
        <filter id="mgmvfui2nb" width="137.5%" height="137.5%" x="-17.5%" y="-11.2%" filterUnits="objectBoundingBox">
            <feOffset dx="1" dy="6" in="SourceAlpha" result="shadowOffsetOuter1"/>
            <feGaussianBlur in="shadowOffsetOuter1" result="shadowBlurOuter1" stdDeviation="4"/>
            <feColorMatrix in="shadowBlurOuter1" values="0 0 0 0 0.78031994 0 0 0 0 0.78031994 0 0 0 0 0.78031994 0 0 0 0.5 0"/>
        </filter>
    </defs>
    <g fill="none" fill-rule="evenodd">
        <g>
            <g>
                <path d="M0 0H340V182H0z" transform="translate(-790 -460) translate(790 460)"/>
                <path fill="#EDF0F2" stroke="#999" d="M287.678 57.5c11.907.04 16.32 1.305 20.762 3.68 4.475 2.394 7.986 5.905 10.38 10.38 2.413 4.513 3.68 8.995 3.68 21.334h0v48.212c0 12.34-1.267 16.821-3.68 21.334-2.394 4.475-5.905 7.986-10.38 10.38-4.513 2.413-8.995 3.68-21.334 3.68h0H54.894c-12.34 0-16.821-1.267-21.334-3.68-4.475-2.394-7.986-5.905-10.38-10.38-2.375-4.443-3.64-8.855-3.68-20.764h0V92.322c.04-11.907 1.305-16.32 3.68-20.762 2.394-4.475 5.905-7.986 10.38-10.38 4.443-2.375 8.855-3.64 20.764-3.68h0z" transform="translate(-790 -460) translate(790 460)"/>
                <path fill="#FFF" stroke="#999" d="M289.843 65.5c8.41.033 11.54.928 14.69 2.612 3.17 1.696 5.659 4.185 7.355 7.355 1.716 3.21 2.612 6.398 2.612 15.172h0v52.722c0 8.774-.896 11.962-2.612 15.172-1.696 3.17-4.185 5.659-7.355 7.355-3.21 1.716-6.398 2.612-15.172 2.612h0H52.64c-8.774 0-11.962-.896-15.172-2.612-3.17-1.696-5.659-4.185-7.355-7.355-1.716-3.21-2.612-6.398-2.612-15.172h0V90.64c0-8.774.896-11.962 2.612-15.172 1.696-3.17 4.185-5.659 7.355-7.355 3.15-1.684 6.278-2.578 14.682-2.611h0z" transform="translate(-790 -460) translate(790 460)"/>
                <path fill="#FFF" stroke="#979797" d="M27.5 107.548l10 .909v16.086l-10 .91v-17.905zM111.5 106.55v19.9l-20.476-1.95H37.5v-16h53.524l20.476-1.95z" transform="translate(-790 -460) translate(790 460)"/>
                <path fill="#FFF" stroke="#979797" d="M54.5 113.5H96.5V119.5H54.5z" transform="translate(-790 -460) translate(790 460)"/>
                <path fill="#979797" d="M58 115H83V118H58z" transform="translate(-790 -460) translate(790 460)"/>
                <path fill="#4A4A4A" d="M58 115H68V118H58z" transform="translate(-790 -460) translate(790 460)"/>
                <path fill="#D8D8D8" stroke="#979797" d="M111.5 66.5H112.5V167.5H111.5z" transform="translate(-790 -460) translate(790 460)"/>
                <path fill="#FFF" stroke="#999" d="M287.106 57.5c12.34 0 16.821 1.267 21.334 3.68 4.475 2.394 7.986 5.905 10.38 10.38 2.413 4.513 3.68 8.995 3.68 21.334h0v48.212c0 12.34-1.267 16.821-3.68 21.334-2.394 4.475-5.905 7.986-10.38 10.38-4.513 2.413-8.995 3.68-21.334 3.68h0-135.212c-12.34 0-16.821-1.267-21.334-3.68-4.475-2.394-7.986-5.905-10.38-10.38-2.375-4.443-3.64-8.855-3.68-20.764h0V92.894c0-12.34 1.267-16.821 3.68-21.334 2.394-4.475 5.905-7.986 10.38-10.38 4.443-2.375 8.855-3.64 20.764-3.68h0z" transform="translate(-790 -460) translate(790 460)"/>
                <path fill="#EDF0F2" stroke="#999" d="M276.18 98.5c4.317 0 5.889.432 7.468 1.277 1.542.824 2.751 2.033 3.575 3.575.845 1.58 1.277 3.151 1.277 7.467h0v16.362c0 4.316-.432 5.888-1.277 7.467-.824 1.542-2.033 2.751-3.575 3.575-1.58.845-3.151 1.277-7.467 1.277h0-54.362c-4.316 0-5.888-.432-7.467-1.277-1.542-.824-2.751-2.033-3.575-3.575-.845-1.58-1.277-3.151-1.277-7.467h0v-16.362c0-4.316.432-5.888 1.277-7.467.824-1.542 2.033-2.751 3.575-3.575 1.58-.845 3.151-1.277 7.467-1.277h0z" transform="translate(-790 -460) translate(790 460)"/>
                <path fill="#FFF" stroke="#979797" d="M100.5 71.5v11h-27v-5h18v-6h9z" transform="translate(-790 -460) translate(790 460)"/>
                <path fill="#FFF" stroke="#979797" d="M100.5 151.5v11h-27v-5h18v-6h9z" transform="translate(-790 -460) translate(790 460) matrix(1 0 0 -1 0 314)"/>
                <g transform="translate(-790 -460) translate(790 460) translate(19 75)">
                    <mask id="u9ak72396c" fill="#fff">
                        <use xlink:href="#xx1rcv2tea"/>
                    </mask>
                    <g>
                        <use fill="#000" filter="url(#mgmvfui2nb)" xlink:href="#xx1rcv2tea"/>
                        <use fill="#FFF" xlink:href="#xx1rcv2tea"/>
                    </g>
                    <path fill="#4A96E6" d="M24 61L32 56 32 66z" mask="url(#u9ak72396c)"/>
                    <path fill="#4A96E6" d="M31 60H43V62H31z" mask="url(#u9ak72396c)"/>
                    <path fill="#FFF" stroke="#979797" d="M-.5 32.548l10 .909v16.086l-10 .91V32.547zM83.5 31.55v19.9L63.024 49.5H9.5v-16h53.524L83.5 31.55z" mask="url(#u9ak72396c)"/>
                    <path fill="#FFF" stroke="#979797" d="M26.5 38.5H68.5V44.5H26.5z" mask="url(#u9ak72396c)"/>
                    <path fill="#979797" d="M30 40H55V43H30z" mask="url(#u9ak72396c)"/>
                    <path fill="#4A4A4A" d="M30 40H40V43H30z" mask="url(#u9ak72396c)"/>
                    <mask id="87ddo5jere" fill="#fff">
                        <use xlink:href="#hedw8v12xd"/>
                    </mask>
                    <use stroke="#4A96E6" xlink:href="#hedw8v12xd"/>
                    <circle cx="34.5" cy="40.5" r="13.5" fill="#4A96E6" fill-opacity=".14" mask="url(#87ddo5jere)"/>
                </g>
                <path fill="#4A96E6" fill-rule="nonzero" d="M114.856 20.44v-1.072h-3.664V15.96h2.432v-1.056h-2.208v-4.688h2.224V9.16H103v1.056h2.224v4.688h-2.192v1.056h2.416v3.408h-3.616v1.072h13.024zm-4.752-5.536h-3.568v-4.688h3.568v4.688zm-.224 4.464h-3.12V15.96h3.12v3.408zm18.432 2.848V7.832H127v14.384h1.312zm-11.008-3.008c1.68-.864 3.056-2.656 3.712-4.816.688 2.048 2.064 3.744 3.696 4.544l.784-1.056c-2.128-.96-3.84-3.6-3.84-6.224V9.08h-1.296v2.576c0 2.72-1.744 5.472-3.856 6.48l.8 1.072zm25.728-.64V7.832h-1.312v10.736h1.312zm-11.488-1.808c2.672 0 6.08-.096 9.12-.528l-.096-.944c-1.232.144-2.528.224-3.856.288v-1.984h2.848v-1.056h-5.616V9.832h5.52V8.76h-6.832v4.832h2.768v2.032c-1.408.048-2.8.064-4.048.064l.192 1.072zm11.968 5.104v-1.072h-8.448v-2.928h-1.312v4h9.76zm17.216-5.392v-3.936h2.128v-1.088h-2.128V7.832h-1.312v8.64h1.312zm-3.904-1.12V8.744h-1.28v2.16h-4.064v-2.16h-1.296v6.608h6.64zm-1.28-1.056h-4.064v-2.368h4.064v2.368zm.624 7.888c2.912 0 4.72-.976 4.72-2.672 0-1.696-1.808-2.672-4.72-2.672-2.928 0-4.736.976-4.736 2.672 0 1.696 1.808 2.672 4.736 2.672zm0-1.04c-2.144 0-3.424-.608-3.424-1.632s1.28-1.616 3.424-1.616c2.112 0 3.408.592 3.408 1.616s-1.296 1.632-3.408 1.632zm16.656-10.64V9.448h-3.584V7.704h-1.312v1.744h-3.568v1.056h8.464zm2.624 6.56v-2.608h2.096v-1.088h-2.096v-1.984h2.096v-1.072h-2.096v-2.48h-1.312v9.232h1.312zm-6.864-.768c2.048 0 3.44-.992 3.44-2.544 0-1.536-1.392-2.528-3.44-2.528s-3.424.992-3.424 2.528c0 1.552 1.376 2.544 3.424 2.544zm0-.992c-1.312 0-2.176-.608-2.176-1.552 0-.944.864-1.536 2.176-1.536 1.312 0 2.192.592 2.192 1.536 0 .944-.88 1.552-2.192 1.552zm2.368 6.864c2.88 0 4.672-.912 4.672-2.48 0-1.584-1.792-2.48-4.672-2.48-2.896 0-4.672.896-4.672 2.48 0 1.568 1.776 2.48 4.672 2.48zm0-1.008c-2.096 0-3.376-.544-3.376-1.472 0-.928 1.28-1.472 3.376-1.472s3.376.544 3.376 1.472c0 .928-1.28 1.472-3.376 1.472zm14.56-4.496c2.976 0 5.216-1.568 5.216-3.968 0-2.384-2.24-3.968-5.216-3.968s-5.216 1.584-5.216 3.968c0 2.4 2.24 3.968 5.216 3.968zm0-1.072c-2.256 0-3.968-1.152-3.968-2.896 0-1.728 1.712-2.896 3.968-2.896 2.272 0 3.968 1.168 3.968 2.896 0 1.744-1.696 2.896-3.968 2.896zm6.544 4.688v-1.088h-13.04v1.088h13.04zm14.72.128v-1.072h-5.872v-2.704h4.592v-1.056h-8.832v-2.32h8.496V8.888h-9.824V9.96h8.544v2.24h-8.512v4.432h4.208v2.704h-5.84v1.072h13.04zm9.409.858c2.335 0 3.937-1.563 3.937-3.852 0-2.219-1.5-3.773-3.64-3.773-1.04 0-1.837.32-2.383.96h-.125l.32-3.617h5.187V9.727h-6.289l-.617 6.39h1.32c.461-.805 1.305-1.265 2.329-1.265 1.476 0 2.492 1.054 2.492 2.601s-1.008 2.578-2.516 2.578c-1.328 0-2.297-.812-2.422-2.031h-1.382c.125 1.945 1.656 3.266 3.789 3.266zm14.873-10.618V9.592h-3.696V7.848h-1.312v1.744h-3.712v1.056h8.72zm2.592 11.536V7.848h-1.312v14.336h1.312zm-2.128-3.296l-.096-.976c-1.312.176-2.704.272-4.064.336v-1.504c1.696-.208 2.784-1.2 2.784-2.624 0-1.616-1.392-2.656-3.44-2.656s-3.456 1.04-3.456 2.656c0 1.44 1.104 2.432 2.8 2.64v1.536c-1.424.048-2.8.064-4.016.064l.192 1.104c2.64 0 6.096-.048 9.296-.576zm-4.816-3.136c-1.312 0-2.208-.64-2.208-1.632 0-1.008.896-1.648 2.208-1.648 1.296 0 2.192.64 2.192 1.648 0 .992-.896 1.632-2.192 1.632zm25.296 6.464V7.832h-1.312v14.384h1.312zm-7.568-3.264c2.128 0 3.648-1.952 3.648-5.008s-1.52-5.008-3.648-5.008-3.648 1.952-3.648 5.008 1.52 5.008 3.648 5.008zm0-1.168c-1.408 0-2.4-1.504-2.4-3.84 0-2.32.992-3.824 2.4-3.824 1.392 0 2.384 1.504 2.384 3.824 0 2.336-.992 3.84-2.384 3.84zm21.68-1.248v-3.904h2.128v-1.088h-2.128V7.848h-1.312v8.688h1.312zm-10.512-.528c1.68-.64 2.96-1.952 3.552-3.632.64 1.472 1.872 2.656 3.424 3.232l.688-1.024c-2.064-.704-3.472-2.496-3.472-4.432V8.568h-1.312v1.472c0 2.192-1.392 4.144-3.568 4.928l.688 1.04zm5.952 6.16c2.912 0 4.72-.944 4.72-2.608 0-1.68-1.808-2.624-4.72-2.624-2.928 0-4.736.944-4.736 2.624 0 1.664 1.808 2.608 4.736 2.608zm0-1.024c-2.128 0-3.424-.592-3.424-1.584 0-1.008 1.296-1.6 3.424-1.6 2.112 0 3.408.592 3.408 1.6 0 .992-1.296 1.584-3.408 1.584zm23.152 1.04v-7.648h1.92v-1.104h-1.92v-5.6h-1.296v14.352h1.296zm-7.184-3.472V9.176h-1.088v3.68h-1.76v-3.68h-1.12v9.536h3.968zm4.672 0V9.176h-1.104v3.68h-1.696v-3.68h-1.104v9.536h3.904zm-5.76-1.072h-1.76v-3.728h1.76v3.728zm4.656 0h-1.696v-3.728h1.696v3.728zm18.656-.96v-1.072h-8.832v-2.336h8.496V8.936h-9.824v1.056h8.544v2.224h-8.512v4.464h10.128zm1.28 3.696v-1.088h-13.04v1.088h13.04zm13.888 1.808V7.832h-1.248v14.352h1.248zm-2.992-.72V8.216h-1.248v5.488h-2.48c.48-1.28.688-2.64.688-4.048h-5.536v1.072h4.24c-.24 3.008-1.776 5.584-4.848 7.424l.768.944c1.984-1.184 3.36-2.672 4.224-4.336h2.944v6.704h1.248zM113.336 34.312v-1.056h-8.448V30.04h-1.296v4.272h9.744zm.352 9.712V43h-8.896v-1.552h8.416v-3.312h-4.224v-1.504h5.872V35.56h-13.008v1.072h5.824v1.504h-4.224v1.008h8.448v1.344h-8.416v3.536h10.208zm14.688.176V29.816h-1.312v5.536h-2.736v1.072h2.736V44.2h1.312zM118.2 40.744c2.592 0 4.416-.08 6.576-.464l-.128-1.088c-2.064.368-3.808.464-6.256.464v-3.472h5.088V31.16h-6.416v1.072h5.136v2.896h-5.104v5.616h1.104zm24.8-3.936l.512-1.04c-2.528-.368-5.008-2.016-5.008-3.904v-.08H143v-1.056h-10.48v1.056h4.528v.08c0 1.888-2.48 3.536-4.976 3.904l.496 1.04c2.224-.384 4.336-1.584 5.216-3.28.864 1.696 2.992 2.896 5.216 3.28zm-4.592 7.376V39.08h5.872l-.016-1.072h-12.96v1.072h5.792v5.104h1.312zm19.792 0V29.832h-1.248v14.352h1.248zm-2.928-.704V30.152h-1.232v4.832h-2.368v1.088h2.368v7.408h1.232zm-8.608-2.368c1.424-.88 2.464-2.512 2.976-4.416.512 1.744 1.472 3.264 2.832 4.096l.752-1.024c-1.888-1.152-2.96-3.584-2.96-5.888v-2.688H149v2.736c0 2.464-1.184 5.04-3.152 6.192l.816.992zm27.088 1.232v-1.088h-3.216v-3.888c1.184-.624 1.888-1.648 1.888-2.944 0-2.24-2.16-3.68-5.216-3.68-3.04 0-5.216 1.44-5.216 3.68 0 1.296.72 2.336 1.92 2.96v3.872h-3.2v1.088h13.04zm-6.544-5.264c-2.304 0-3.952-1.056-3.952-2.656s1.648-2.656 3.952-2.656c2.304 0 3.968 1.056 3.968 2.656s-1.664 2.656-3.968 2.656zm2.016 4.176h-4V37.88c.592.144 1.28.224 1.984.224.72 0 1.408-.08 2.016-.224v3.376zm8.464-1.792l.192-6.784.048-1.664h-1.488l.048 1.664.192 6.784h1.008zm-.512 3.744c.592 0 1.056-.448 1.056-1.104 0-.656-.464-1.136-1.056-1.136-.576 0-1.056.48-1.056 1.136 0 .656.48 1.104 1.056 1.104z" transform="translate(-790 -460) translate(790 460)"/>
                <path stroke="#4B96E6" d="M65.5 75L92.5 26.5" transform="translate(-790 -460) translate(790 460)"/>
            </g>
        </g>
    </g>
</svg>
