<svg xmlns="http://www.w3.org/2000/svg" width="304" height="120" viewBox="0 0 304 120">
    <g fill="none" fill-rule="evenodd">
        <g>
            <g transform="translate(-450 -420) translate(450 420)">
                <path fill="#EDF0F2" stroke="#999" d="M268.678.5c11.907.04 16.32 1.305 20.762 3.68 4.475 2.394 7.986 5.905 10.38 10.38 2.413 4.513 3.68 8.995 3.68 21.334h0v48.212c0 12.34-1.267 16.821-3.68 21.334-2.394 4.475-5.905 7.986-10.38 10.38-4.513 2.413-8.995 3.68-21.334 3.68h0H35.894c-12.34 0-16.821-1.267-21.334-3.68-4.475-2.394-7.986-5.905-10.38-10.38C1.806 100.997.54 96.585.5 84.676h0V35.322c.04-11.907 1.305-16.32 3.68-20.762 2.394-4.475 5.905-7.986 10.38-10.38C19.003 1.806 23.415.54 35.324.5h0z"/>
                <path fill="#FFF" stroke="#999" d="M270.361 8.5c8.774 0 11.962.896 15.172 2.612 3.17 1.696 5.659 4.185 7.355 7.355 1.716 3.21 2.612 6.398 2.612 15.172h0V86.36c0 8.774-.896 11.962-2.612 15.172-1.696 3.17-4.185 5.659-7.355 7.355-3.21 1.716-6.398 2.612-15.172 2.612h0H33.64c-8.774 0-11.962-.896-15.172-2.612-3.17-1.696-5.659-4.185-7.355-7.355C9.396 98.323 8.5 95.135 8.5 86.36h0V33.64c0-8.774.896-11.962 2.612-15.172 1.696-3.17 4.185-5.659 7.355-7.355C21.677 9.396 24.865 8.5 33.64 8.5H270.36z"/>
                <path fill="#FFF" stroke="#979797" d="M8.5 50.548l10 .909v16.086l-10 .91V50.547zM92.5 49.55v19.9L72.024 67.5H18.5v-16h53.524L92.5 49.55z"/>
                <path fill="#FFF" stroke="#979797" d="M35.5 56.5H77.5V62.5H35.5z"/>
                <path fill="#979797" d="M39 58H64V61H39z"/>
                <circle cx="43" cy="59" r="20" fill="#FB4444" fill-opacity=".2"/>
                <path fill="#4A4A4A" d="M39 58H49V61H39z"/>
                <path fill="#D8D8D8" stroke="#979797" d="M92.5 9.5H93.5V110.5H92.5z"/>
                <path fill="#FFF" stroke="#979797" d="M81.5 14.5v11h-27v-5h18v-6h9z"/>
                <path fill="#FFF" stroke="#979797" d="M81.5 94.5v11h-27v-5h18v-6h9z" transform="matrix(1 0 0 -1 0 200)"/>
                <g fill="#FFF" stroke="#979797" transform="translate(109 11)">
                    <rect width="9" height="13" x=".5" y="12.5" rx="2"/>
                    <rect width="160" height="37" x="5.5" y=".5" rx="3"/>
                </g>
                <g fill="#FFF" stroke="#979797" transform="matrix(-1 0 0 1 275 71)">
                    <rect width="9" height="13" x=".5" y="12.5" rx="2"/>
                    <rect width="160" height="37" x="5.5" y=".5" rx="3"/>
                </g>
                <path fill="#262626" fill-rule="nonzero" d="M236.627 94l.71-2.095h2.954L241 94h1.272l-2.798-7.75h-1.3L235.376 94h1.251zm3.357-3.062h-2.341l1.154-3.4h.033l1.154 3.4zm3.82 3.062l.708-2.095h2.954l.71 2.095h1.272l-2.798-7.75h-1.3L242.552 94h1.251zm3.356-3.062h-2.342l1.155-3.4h.032l1.155 3.4zM250.98 94l.709-2.095h2.954l.71 2.095h1.272l-2.798-7.75h-1.3L249.728 94h1.251zm3.357-3.062h-2.342l1.155-3.4h.032l1.155 3.4zM128.627 34l.71-2.095h2.954L133 34h1.272l-2.798-7.75h-1.3L127.376 34h1.251zm3.357-3.062h-2.341l1.154-3.4h.033l1.154 3.4zm3.82 3.062l.708-2.095h2.954l.71 2.095h1.272l-2.798-7.75h-1.3L134.552 34h1.251zm3.356-3.062h-2.342l1.155-3.4h.032l1.155 3.4zM142.98 34l.709-2.095h2.954l.71 2.095h1.272l-2.798-7.75h-1.3L141.728 34h1.251zm3.357-3.062h-2.342l1.155-3.4h.032l1.155 3.4z"/>
                <path fill="#FFF" stroke="#979797" d="M92.5 52.5H295.5V67.5H92.5z"/>
            </g>
        </g>
    </g>
</svg>
