<svg xmlns="http://www.w3.org/2000/svg" xmlns:xlink="http://www.w3.org/1999/xlink" width="340" height="182" viewBox="0 0 340 182">
    <defs>
        <circle id="d9y1ihlvoc" cx="40" cy="40" r="40"/>
        <circle id="ysqdlfynhh" cx="40" cy="40" r="40"/>
        <path id="kn3q0bbvra" d="M0 180.02L123.058 180.02 123.058 0 0 0z"/>
        <path id="cuhjalrn5f" d="M0 0.821L39.012 0.821 39.012 40 0 40z"/>
        <filter id="mom959qixd" width="137.5%" height="137.5%" x="-17.5%" y="-11.2%" filterUnits="objectBoundingBox">
            <feOffset dx="1" dy="6" in="SourceAlpha" result="shadowOffsetOuter1"/>
            <feGaussianBlur in="shadowOffsetOuter1" result="shadowBlurOuter1" stdDeviation="4"/>
            <feColorMatrix in="shadowBlurOuter1" values="0 0 0 0 0.78031994 0 0 0 0 0.78031994 0 0 0 0 0.78031994 0 0 0 0.5 0"/>
        </filter>
    </defs>
    <g fill="none" fill-rule="evenodd">
        <g>
            <g>
                <path d="M0 0H340V182H0z" transform="translate(-790 -468) translate(790 468)"/>
                <g transform="translate(-790 -468) translate(790 468) translate(70)">
                    <path fill="#C9C9C9" d="M37.672 179.52c-2.783 0-5.047-2.264-5.047-5.047v-38.977c0-2.784 2.264-5.047 5.047-5.047s5.048 2.263 5.048 5.047v38.977c0 2.783-2.265 5.047-5.048 5.047"/>
                    <path fill="#999" d="M37.672 129.948c-3.05 0-5.547 2.496-5.547 5.547v38.977c0 3.051 2.496 5.547 5.547 5.547 3.052 0 5.548-2.496 5.548-5.547v-38.977c0-3.05-2.496-5.547-5.548-5.547m0 1c2.508 0 4.548 2.04 4.548 4.547v38.977c0 2.507-2.04 4.547-4.548 4.547-2.507 0-4.547-2.04-4.547-4.547v-38.977c0-2.507 2.04-4.547 4.547-4.547"/>
                    <path fill="#C9C9C9" d="M86.49 179.52c-2.783 0-5.047-2.264-5.047-5.047v-38.977c0-2.784 2.264-5.047 5.047-5.047s5.048 2.263 5.048 5.047v38.977c0 2.783-2.265 5.047-5.048 5.047"/>
                    <path fill="#999" d="M86.49 129.948c-3.051 0-5.547 2.496-5.547 5.547v38.977c0 3.051 2.496 5.547 5.547 5.547 3.052 0 5.548-2.496 5.548-5.547v-38.977c0-3.05-2.496-5.547-5.548-5.547m0 1c2.508 0 4.548 2.04 4.548 4.547v38.977c0 2.507-2.04 4.547-4.548 4.547-2.507 0-4.547-2.04-4.547-4.547v-38.977c0-2.507 2.04-4.547 4.547-4.547"/>
                    <path fill="#FFF" d="M115.329 144.365c-.282 0-.593-.025-.924-.076l-4.935-.692V102.9l8.004-.763v39.967c.007.087.14 1.02-.395 1.644-.354.41-.942.618-1.75.618"/>
                    <path fill="#999" d="M117.973 101.587l-9.004.857v41.588l5.36.751c.37.057.701.082 1 .082 3.09 0 2.644-2.76 2.644-2.76v-40.518zm-1 1.1v39.497l.013.08c.001.006.088.717-.284 1.153-.253.298-.715.448-1.374.448-.255 0-.54-.023-.86-.073l-4.499-.629v-39.809l7.004-.667z"/>
                    <path fill="#FFF" d="M7.988 144.365c-.808 0-1.396-.208-1.75-.619-.536-.623-.402-1.556-.4-1.566l.005-40.044 8.004.763v40.698l-4.928.691c-.338.052-.65.077-.931.077"/>
                    <path fill="#999" d="M5.343 101.587v40.517s-.445 2.761 2.645 2.761c.298 0 .63-.025 1-.082l5.36-.75v-41.589l-9.005-.857zm1 1.1l7.004.667v39.81l-4.512.63c-.305.048-.59.071-.847.071-.653 0-1.113-.148-1.367-.44-.32-.368-.317-.97-.29-1.162l.012-.079v-39.497z"/>
                    <path fill="#FFF" d="M61.534 150.807c-27.875 0-43.462-1.5-47.653-4.581-.673-.346-1.033-.831-1.033-1.341v-40.297h97.37v40.297c0 .51-.36.995-.96 1.296-4.262 3.127-19.85 4.626-47.724 4.626"/>
                    <path fill="#999" d="M110.718 104.088h-98.37v40.797c0 .73.496 1.372 1.236 1.743 4.976 3.66 24.546 4.68 47.95 4.68 23.402 0 42.973-1.02 47.948-4.68.741-.37 1.236-1.014 1.236-1.743v-40.797zm-1 1v39.797c0 .312-.262.638-.684.85l-.076.037-.069.05c-6.095 4.485-37.15 4.485-47.356 4.485-10.206 0-41.26 0-47.356-4.485l-.068-.05-.078-.038c-.42-.21-.683-.537-.683-.849v-39.797h96.37z"/>
                    <mask id="n0bfpeerqb" fill="#fff">
                        <use xlink:href="#kn3q0bbvra"/>
                    </mask>
                    <path fill="#C9C9C9" d="M59.53 150.867L64.884 150.867 64.884 104.588 59.53 104.588z" mask="url(#n0bfpeerqb)"/>
                    <path fill="#999" d="M59.029 151.367h6.354v-47.279h-6.354v47.279zm1-1h4.354v-45.279h-4.354v45.279z" mask="url(#n0bfpeerqb)"/>
                    <path fill="#FFF" d="M61.523 109.162c-35.88 0-60.508-4.122-61-7.973l-.015-.12V4.448h122.05v96.58l-.035.16c-.491 3.851-25.12 7.973-61 7.973" mask="url(#n0bfpeerqb)"/>
                    <path fill="#999" d="M123.058 3.948H.008v97.102c0 .016-.008.032-.008.048s.008.032.008.048v.107h.02c.594 4.658 27.889 8.408 61.495 8.408 33.606 0 60.901-3.75 61.496-8.408h.039V3.948zm-1 1v95.934l-.031.244c-.121.947-3.937 3.228-17.513 5.087-11.528 1.58-26.797 2.448-42.991 2.448s-31.462-.869-42.991-2.448c-13.576-1.859-17.391-4.14-17.512-5.087l-.012-.075V4.947h121.05z" mask="url(#n0bfpeerqb)"/>
                    <path fill="#FFF" d="M61.53 7.458C27.298 7.458 2.759 5.68.585 3.98 2.759 2.28 27.297.5 61.53.5c34.233 0 58.77 1.78 60.946 3.48-2.175 1.7-26.714 3.478-60.946 3.478" mask="url(#n0bfpeerqb)"/>
                    <path fill="#999" d="M61.53 0C27.55 0 .007 1.781.007 3.98c0 2.197 27.544 3.978 61.523 3.978s61.524-1.78 61.524-3.979C123.054 1.781 95.509 0 61.53 0m0 1c33.113 0 54.284 1.608 59.53 2.98-5.246 1.37-26.417 2.978-59.53 2.978C28.418 6.958 7.247 5.35 2 3.98 7.247 2.61 28.418 1 61.53 1" mask="url(#n0bfpeerqb)"/>
                    <path fill="#FFF" d="M99.748 85.966c-5.239 0-9.5-4.262-9.5-9.5v-3.395c0-5.238 4.261-9.5 9.5-9.5h3.294c5.239 0 9.5 4.262 9.5 9.5v3.395c0 5.238-4.261 9.5-9.5 9.5h-3.294z" mask="url(#n0bfpeerqb)"/>
                    <path fill="#999" d="M103.042 63.072h-3.295c-5.5 0-10 4.5-10 10v3.394c0 5.5 4.5 10 10 10h3.295c5.5 0 10-4.5 10-10v-3.394c0-5.5-4.5-10-10-10m0 1c4.963 0 9 4.037 9 9v3.394c0 4.963-4.037 9-9 9h-3.295c-4.963 0-9-4.037-9-9v-3.394c0-4.963 4.037-9 9-9h3.295" mask="url(#n0bfpeerqb)"/>
                    <path fill="#EDF0F2" d="M103.114 84.438H99.82c-4.4 0-8-3.601-8-8v-3.294c0-4.4 3.6-8 8-8h3.294c4.399 0 8 3.6 8 8v3.294c0 4.399-3.601 8-8 8" mask="url(#n0bfpeerqb)"/>
                    <path stroke="#999" d="M103.114 84.438H99.82c-4.4 0-8-3.601-8-8v-3.294c0-4.4 3.6-8 8-8h3.294c4.399 0 8 3.6 8 8v3.294c0 4.399-3.601 8-8 8z" mask="url(#n0bfpeerqb)"/>
                    <path stroke="#999" stroke-linecap="round" stroke-width="1.5" d="M104.712 70.708c1.408.994 2.328 2.635 2.328 4.49 0 3.033-2.459 5.492-5.493 5.492-3.033 0-5.492-2.459-5.492-5.492 0-1.855.92-3.496 2.328-4.49" mask="url(#n0bfpeerqb)"/>
                    <path fill="#999" d="M101.654 76.131c-.368 0-.67-.302-.67-.67v-6.003c0-.368.302-.67.67-.67.369 0 .67.302.67.67v6.003c0 .368-.301.67-.67.67M103.075 55.738c0 .873-.708 1.581-1.581 1.581s-1.581-.708-1.581-1.58c0-.874.708-1.582 1.58-1.582.874 0 1.582.708 1.582 1.581" mask="url(#n0bfpeerqb)"/>
                    <path stroke="#EDF0F2" d="M103.075 55.738c0 .873-.708 1.581-1.581 1.581s-1.581-.708-1.581-1.58c0-.874.708-1.582 1.58-1.582.874 0 1.582.708 1.582 1.581z" mask="url(#n0bfpeerqb)"/>
                </g>
                <path fill="#4A96E6" fill-rule="nonzero" d="M236.977 29.266c2.335 0 3.937-1.563 3.937-3.852 0-2.219-1.5-3.773-3.64-3.773-1.04 0-1.837.32-2.383.96h-.125l.32-3.617h5.187v-1.257h-6.289l-.617 6.39h1.32c.461-.805 1.305-1.265 2.329-1.265 1.476 0 2.492 1.054 2.492 2.601s-1.008 2.578-2.516 2.578c-1.328 0-2.297-.812-2.422-2.031h-1.382c.125 1.945 1.656 3.266 3.789 3.266zm17.545-4.73l.512-1.04c-2.784-.448-5.12-2.128-5.12-4.336h4.608v-1.056h-4.608v-1.952h-1.328v1.952h-4.624v1.056h4.624c0 2.208-2.336 3.888-5.12 4.336l.512 1.04c2.304-.416 4.368-1.568 5.28-3.328.896 1.76 2.96 2.912 5.264 3.328zm1.248 3.84v-1.088h-5.856v-3.264h-1.328v3.264h-5.84v1.088h13.024zm17.024 1.84V15.832h-1.312v14.384h1.312zm-7.568-3.264c2.128 0 3.648-1.952 3.648-5.008s-1.52-5.008-3.648-5.008-3.648 1.952-3.648 5.008 1.52 5.008 3.648 5.008zm0-1.168c-1.408 0-2.4-1.504-2.4-3.84 0-2.32.992-3.824 2.4-3.824 1.392 0 2.384 1.504 2.384 3.824 0 2.336-.992 3.84-2.384 3.84zm21.68-1.248v-3.904h2.128v-1.088h-2.128v-3.696h-1.312v8.688h1.312zm-10.512-.528c1.68-.64 2.96-1.952 3.552-3.632.64 1.472 1.872 2.656 3.424 3.232l.688-1.024c-2.064-.704-3.472-2.496-3.472-4.432v-1.584h-1.312v1.472c0 2.192-1.392 4.144-3.568 4.928l.688 1.04zm5.952 6.16c2.912 0 4.72-.944 4.72-2.608 0-1.68-1.808-2.624-4.72-2.624-2.928 0-4.736.944-4.736 2.624 0 1.664 1.808 2.608 4.736 2.608zm0-1.024c-2.128 0-3.424-.592-3.424-1.584 0-1.008 1.296-1.6 3.424-1.6 2.112 0 3.408.592 3.408 1.6 0 .992-1.296 1.584-3.408 1.584zm23.04 1.008v-4.896h-4.176v-2.56h5.888v-1.072h-2.064c.469-2.025.495-3.522.496-4.423v-.713h-4.528v1.056h3.248c-.016.912-.08 2.24-.512 4.08h-4.4c.563-2.158.591-3.754.592-4.594v-.542h-4.592v1.056h3.312c-.032.912-.144 2.256-.608 4.08h-3.968v1.072h5.824v2.56h-4.352v1.056h8.528v3.84h1.312zm7.392-5.072v-1.12h-4.096v1.12h4.096zm-68.442 17.232v-1.056h-8.448V38.04h-1.296v4.272h9.744zm.352 9.712V51h-8.896v-1.552h8.416v-3.312h-4.224v-1.504h5.872V43.56h-13.008v1.072h5.824v1.504h-4.224v1.008h8.448v1.344h-8.416v3.536h10.208zm14.688.176V37.816h-1.312v5.536h-2.736v1.072h2.736V52.2h1.312zM249.2 48.744c2.592 0 4.416-.08 6.576-.464l-.128-1.088c-2.064.368-3.808.464-6.256.464v-3.472h5.088V39.16h-6.416v1.072h5.136v2.896h-5.104v5.616h1.104zm24.8-3.936l.512-1.04c-2.528-.368-5.008-2.016-5.008-3.904v-.08H274v-1.056h-10.48v1.056h4.528v.08c0 1.888-2.48 3.536-4.976 3.904l.496 1.04c2.224-.384 4.336-1.584 5.216-3.28.864 1.696 2.992 2.896 5.216 3.28zm-4.592 7.376V47.08h5.872l-.016-1.072h-12.96v1.072h5.792v5.104h1.312zm19.792 0V37.832h-1.248v14.352h1.248zm-2.928-.704V38.152h-1.232v4.832h-2.368v1.088h2.368v7.408h1.232zm-8.608-2.368c1.424-.88 2.464-2.512 2.976-4.416.512 1.744 1.472 3.264 2.832 4.096l.752-1.024c-1.888-1.152-2.96-3.584-2.96-5.888v-2.688H280v2.736c0 2.464-1.184 5.04-3.152 6.192l.816.992zm27.088 1.232v-1.088h-3.216v-3.888c1.184-.624 1.888-1.648 1.888-2.944 0-2.24-2.16-3.68-5.216-3.68-3.04 0-5.216 1.44-5.216 3.68 0 1.296.72 2.336 1.92 2.96v3.872h-3.2v1.088h13.04zm-6.544-5.264c-2.304 0-3.952-1.056-3.952-2.656s1.648-2.656 3.952-2.656c2.304 0 3.968 1.056 3.968 2.656s-1.664 2.656-3.968 2.656zm2.016 4.176h-4V45.88c.592.144 1.28.224 1.984.224.72 0 1.408-.08 2.016-.224v3.376zm8.464-1.792l.192-6.784.048-1.664h-1.488l.048 1.664.192 6.784h1.008zm-.512 3.744c.592 0 1.056-.448 1.056-1.104 0-.656-.464-1.136-1.056-1.136-.576 0-1.056.48-1.056 1.136 0 .656.48 1.104 1.056 1.104z" transform="translate(-790 -468) translate(790 468)"/>
                <path fill="#4A96E6" d="M190.935 41.935H227.935V42.935H190.935z" transform="translate(-790 -468) translate(790 468) rotate(-45 209.435 42.435)"/>
                <g transform="translate(-790 -468) translate(790 468) translate(141 44)">
                    <mask id="o66zgbsd7e" fill="#fff">
                        <use xlink:href="#d9y1ihlvoc"/>
                    </mask>
                    <g>
                        <use fill="#000" filter="url(#mom959qixd)" xlink:href="#d9y1ihlvoc"/>
                        <use fill="#FFF" xlink:href="#d9y1ihlvoc"/>
                    </g>
                    <g mask="url(#o66zgbsd7e)">
                        <g>
                            <path fill="#FFF" d="M10 49.458c-5.238 0-9.5-4.262-9.5-9.5V20.779c0-5.238 4.262-9.5 9.5-9.5h19.013c5.238 0 9.5 4.262 9.5 9.5v19.179c0 5.238-4.262 9.5-9.5 9.5H10z" transform="translate(21 13)"/>
                            <g transform="translate(21 13) translate(0 9.958)">
                                <mask id="le5f166rbg" fill="#fff">
                                    <use xlink:href="#cuhjalrn5f"/>
                                </mask>
                                <path fill="#999" d="M29.013.821H10c-5.5 0-10 4.5-10 10v19.18c0 5.5 4.5 10 10 10h19.013c5.5 0 10-4.5 10-10V10.82c0-5.5-4.5-10-10-10m0 1c4.962 0 9 4.037 9 9v19.18c0 4.962-4.038 9-9 9H10c-4.963 0-9-4.038-9-9V10.82c0-4.963 4.037-9 9-9h19.013" mask="url(#le5f166rbg)"/>
                            </g>
                            <path fill="#EDF0F2" d="M27.781 46.56h-16.31c-4.4 0-8-3.6-8-8V22.25c0-4.4 3.6-8 8-8h16.31c4.4 0 8 3.6 8 8v16.31c0 4.4-3.6 8-8 8" transform="translate(21 13)"/>
                            <path stroke="#999" d="M27.781 46.56h-16.31c-4.4 0-8-3.6-8-8V22.25c0-4.4 3.6-8 8-8h16.31c4.4 0 8 3.6 8 8v16.31c0 4.4-3.6 8-8 8z" transform="translate(21 13)"/>
                            <path stroke="#999" stroke-linecap="round" stroke-width="1.5" d="M25.062 23.567c2.358 1.666 3.898 4.413 3.898 7.52 0 5.08-4.118 9.198-9.198 9.198s-9.198-4.118-9.198-9.198c0-3.107 1.54-5.854 3.898-7.52" transform="translate(21 13)"/>
                            <path fill="#FFF" d="M19.936 32.42c-.091 0-.167-.076-.167-.167V20.79c0-.09.076-.166.167-.166.09 0 .166.076.166.166v11.462c0 .09-.076.167-.166.167" transform="translate(21 13)"/>
                            <path fill="#999" d="M19.936 20.125c-.367 0-.667.3-.667.666v11.462c0 .366.3.667.667.667.366 0 .666-.301.666-.667V20.791c0-.366-.3-.666-.666-.666" transform="translate(21 13)"/>
                            <path fill="#EF351C" d="M22.585 3.498c0 1.61-1.305 2.913-2.914 2.913-1.61 0-2.913-1.304-2.913-2.913 0-1.61 1.303-2.913 2.913-2.913 1.61 0 2.914 1.304 2.914 2.913" transform="translate(21 13)"/>
                        </g>
                    </g>
                    <use stroke="#4A96E6" xlink:href="#ysqdlfynhh"/>
                </g>
            </g>
        </g>
    </g>
</svg>
